<svg xmlns="http://www.w3.org/2000/svg" width="720" height="380" viewBox="0 0 720 380" font-family="-apple-system,Segoe UI,Roboto,sans-serif">
<rect width="720" height="380" fill="#ffffff"/>
<text x="70" y="28" fill="#1f2933" font-size="17" font-weight="700">Cross-cell-type generalization gap</text>
<text x="70" y="47" fill="#62707d" font-size="12">Metric drop from a training-seen to the held-out cell type (HepG2). Positive = worse generalization. Data:</text>
<text x="70" y="62" fill="#62707d" font-size="12">bundled SYNTHETIC benchmark fixtures (single-digit n) — this shows the measurement machinery, not a model's</text>
<text x="70" y="77" fill="#62707d" font-size="12">performance.</text>
<line x1="70" y1="310.0" x2="696" y2="310.0" stroke="#dde3e8" stroke-width="1"/>
<text x="62" y="314.0" fill="#62707d" font-size="11" text-anchor="end">-0.1</text>
<line x1="70" y1="266.8" x2="696" y2="266.8" stroke="#dde3e8" stroke-width="1"/>
<text x="62" y="270.8" fill="#62707d" font-size="11" text-anchor="end">-0.06</text>
<line x1="70" y1="223.6" x2="696" y2="223.6" stroke="#dde3e8" stroke-width="1"/>
<text x="62" y="227.6" fill="#62707d" font-size="11" text-anchor="end">-0.02</text>
<line x1="70" y1="180.4" x2="696" y2="180.4" stroke="#dde3e8" stroke-width="1"/>
<text x="62" y="184.4" fill="#62707d" font-size="11" text-anchor="end">0.02</text>
<line x1="70" y1="137.2" x2="696" y2="137.2" stroke="#dde3e8" stroke-width="1"/>
<text x="62" y="141.2" fill="#62707d" font-size="11" text-anchor="end">0.06</text>
<line x1="70" y1="94.0" x2="696" y2="94.0" stroke="#dde3e8" stroke-width="1"/>
<text x="62" y="98.0" fill="#62707d" font-size="11" text-anchor="end">0.1</text>
<text x="18" y="202.0" fill="#62707d" font-size="12" text-anchor="middle" transform="rotate(-90 18 202.0)">Gap (held-out − in-context)</text>
<line x1="70" y1="202.0" x2="696" y2="202.0" stroke="#1f2933" stroke-width="1"/>
<rect x="86.1" y="202.0" width="124.3" height="0.0" fill="#d53f8c" rx="2"/>
<text x="148.2" y="196.0" fill="#1f2933" font-size="11" font-weight="600" text-anchor="middle">0</text>
<text x="148.2" y="328.0" fill="#1f2933" font-size="12" text-anchor="middle">cas9-efficiency</text>
<rect x="242.6" y="202.0" width="124.3" height="47.7" fill="#d53f8c" rx="2"/>
<text x="304.8" y="263.7" fill="#1f2933" font-size="11" font-weight="600" text-anchor="middle">-0.044</text>
<text x="304.8" y="328.0" fill="#1f2933" font-size="12" text-anchor="middle">cas9-outcome</text>
<rect x="399.1" y="178.2" width="124.3" height="23.8" fill="#d53f8c" rx="2"/>
<text x="461.2" y="172.2" fill="#1f2933" font-size="11" font-weight="600" text-anchor="middle">0.022</text>
<text x="461.2" y="328.0" fill="#1f2933" font-size="12" text-anchor="middle">be-outcome</text>
<rect x="555.6" y="202.0" width="124.3" height="0.0" fill="#d53f8c" rx="2"/>
<text x="617.8" y="196.0" fill="#1f2933" font-size="11" font-weight="600" text-anchor="middle">0</text>
<text x="617.8" y="328.0" fill="#1f2933" font-size="12" text-anchor="middle">pe-efficiency</text>
</svg>
